<svg id="Layer_1" data-name="Layer 1" xmlns="http://www.w3.org/2000/svg" viewBox="0 0 22 22"><title>Artboard 1</title><path d="M11,2c2.94,0,3.29,0,4.45.07,3,.13,4.37,1.55,4.5,4.51C20,7.72,20,8.06,20,11s0,3.29-.07,4.45c-.13,2.95-1.52,4.37-4.5,4.5C14.29,20,13.94,20,11,20S7.71,20,6.56,20c-3-.13-4.38-1.55-4.51-4.51C2,14.29,2,13.94,2,11s0-3.28.07-4.44c.13-3,1.52-4.38,4.51-4.51C7.72,2,8.06,2,11,2Zm0-2C8,0,7.64,0,6.47.07,2.47.25.25,2.47.07,6.46,0,7.64,0,8,0,11s0,3.36.07,4.54c.18,4,2.4,6.21,6.39,6.39C7.64,22,8,22,11,22s3.36,0,4.54-.07c4-.18,6.21-2.4,6.39-6.39C22,14.36,22,14,22,11s0-3.36-.07-4.53c-.18-4-2.39-6.22-6.39-6.4C14.36,0,14,0,11,0Zm0,5.35A5.65,5.65,0,1,0,16.65,11,5.65,5.65,0,0,0,11,5.35Zm0,9.32A3.67,3.67,0,1,1,14.67,11,3.67,3.67,0,0,1,11,14.67ZM16.87,3.81a1.32,1.32,0,1,0,1.32,1.32A1.32,1.32,0,0,0,16.87,3.81Z"/></svg>